<svg xmlns="http://www.w3.org/2000/svg" xmlns:xlink="http://www.w3.org/1999/xlink" width="1440" zoomAndPan="magnify" viewBox="0 0 1080 767.999994" height="1024" preserveAspectRatio="xMidYMid meet" version="1.0"><defs><g/><clipPath id="dcc65f47da"><path d="M 214.484375 169.398438 L 1051 169.398438 L 1051 650 L 214.484375 650 Z M 214.484375 169.398438 " clip-rule="nonzero"/></clipPath><clipPath id="36fd2242a5"><path d="M 214.484375 186 L 1011 186 L 1011 594 L 214.484375 594 Z M 214.484375 186 " clip-rule="nonzero"/></clipPath><clipPath id="a84883d8f9"><path d="M 48 169.398438 L 217.867188 169.398438 L 217.867188 650 L 48 650 Z M 48 169.398438 " clip-rule="nonzero"/></clipPath><clipPath id="d1d7d8964f"><path d="M 65 186 L 217.867188 186 L 217.867188 594 L 65 594 Z M 65 186 " clip-rule="nonzero"/></clipPath><clipPath id="735e870a9f"><path d="M 402 202 L 726 202 L 726 499 L 402 499 Z M 402 202 " clip-rule="nonzero"/></clipPath><clipPath id="c6352c2428"><path d="M 489.613281 202.0625 L 726.640625 313.375 L 639.496094 498.9375 L 402.472656 387.625 Z M 489.613281 202.0625 " clip-rule="nonzero"/></clipPath><clipPath id="0c861d00b4"><path d="M 489.613281 202.0625 L 726.089844 313.117188 L 638.945312 498.679688 L 402.472656 387.625 Z M 489.613281 202.0625 " clip-rule="nonzero"/></clipPath><clipPath id="ee5d5c6f6d"><path d="M 189.265625 271.636719 L 615.683594 271.636719 L 615.683594 407.21875 L 189.265625 407.21875 Z M 189.265625 271.636719 " clip-rule="nonzero"/></clipPath><clipPath id="6548eae8f7"><path d="M 152 128 L 587 128 L 587 603 L 152 603 Z M 152 128 " clip-rule="nonzero"/></clipPath><clipPath id="e0dba6ce1c"><path d="M 453.359375 602.261719 L 28.109375 389.902344 L 161.261719 123.265625 L 586.511719 335.628906 Z M 453.359375 602.261719 " clip-rule="nonzero"/></clipPath><clipPath id="ba532da1d8"><path d="M 815.105469 782.914062 L 27.507812 389.601562 L 187.289062 69.636719 L 974.886719 462.953125 Z M 815.105469 782.914062 " clip-rule="nonzero"/></clipPath></defs><path fill="#b172e8" d="M 378.804688 594.171875 C 185.34375 471.226562 88.316406 277.46875 162.082031 161.386719 C 235.847656 45.304688 452.480469 50.875 645.941406 173.820312 C 646.535156 174.1875 647.105469 174.578125 647.695312 174.945312 C 488.339844 74.488281 305.519531 78.066406 238.671875 183.226562 C 171.617188 288.757812 246.730469 456.582031 406.457031 558.070312 C 566.183594 659.582031 750.035156 656.316406 817.085938 550.785156 C 880.964844 450.253906 815.8125 293.203125 671.433594 190.789062 C 847.78125 313.992188 933.113281 495.707031 862.667969 606.566406 C 788.902344 722.667969 572.269531 717.113281 378.804688 594.171875 Z M 378.804688 594.171875 " fill-opacity="1" fill-rule="nonzero"/><g clip-path="url(#dcc65f47da)"><path fill="#b172e8" d="M 809.023438 257.003906 C 815.230469 248.425781 825.160156 243.238281 836.105469 243.238281 C 849.308594 243.238281 860.816406 250.570312 866.457031 262.53125 L 878.980469 289.386719 C 883.15625 292.546875 886.542969 296.71875 888.796875 301.683594 L 910.238281 347.382812 L 998.25 358.328125 C 1011.339844 359.910156 1021.945312 368.710938 1026.007812 381.121094 C 1027.925781 387.101562 1028.152344 393.195312 1026.796875 398.835938 C 1036.953125 402.109375 1044.964844 409.894531 1048.351562 420.390625 C 1052.414062 432.914062 1049.027344 446.117188 1039.4375 455.140625 L 971.507812 518.78125 L 989.113281 610.179688 C 991.480469 623.042969 986.515625 635.792969 975.910156 643.464844 C 965.304688 651.253906 951.535156 652.042969 940.027344 645.722656 L 858.558594 600.8125 L 777.089844 645.722656 C 765.582031 652.042969 751.816406 651.25 741.210938 643.464844 C 730.714844 635.792969 725.636719 623.042969 728.121094 610.179688 L 728.234375 609.164062 C 724.960938 608.035156 721.800781 606.457031 718.867188 604.3125 C 711.191406 598.671875 706.34375 590.433594 705.328125 581.40625 L 294.035156 581.40625 C 270.117188 581.40625 246.984375 562.902344 240.550781 540.105469 L 237.503906 529.386719 C 228.367188 521.941406 221.257812 511.898438 218.097656 500.839844 L 218.097656 500.617188 L -18.519531 500.617188 C -32.851562 500.617188 -46.84375 495.539062 -55.757812 483.804688 C -62.074219 475.453125 -64.445312 465.863281 -64.21875 456.15625 C -69.523438 453.449219 -74.375 449.613281 -78.210938 444.535156 C -90.171875 428.738281 -88.140625 408.203125 -80.015625 391.164062 L -0.128906 225.183594 C 14.089844 195.503906 49.859375 169.554688 83.257812 169.554688 L 741.210938 169.554688 C 755.652344 169.554688 769.53125 174.632812 778.558594 186.367188 C 784.761719 194.714844 787.246094 204.308594 786.90625 214.011719 C 792.324219 216.71875 797.0625 220.554688 800.898438 225.632812 C 808.007812 235 810.152344 246.058594 809.023438 257.003906 Z M 388.707031 345.582031 L 710.742188 345.582031 L 765.128906 232.40625 C 777.316406 207.128906 766.484375 186.367188 741.210938 186.367188 L 83.257812 186.367188 C 57.871094 186.367188 27.179688 207.128906 14.992188 232.40625 L -64.785156 398.5 C -76.96875 423.890625 -66.25 444.539062 -40.863281 444.539062 L 219.566406 444.539062 L 234.347656 496.21875 C 238.859375 512.238281 255.671875 525.328125 271.695312 525.328125 L 731.503906 525.328125 L 722.140625 574.074219 C 720.898438 580.617188 723.378906 586.824219 728.683594 590.660156 C 734.097656 594.609375 740.757812 594.949219 746.511719 591.789062 L 836.105469 542.367188 L 925.808594 591.789062 C 931.5625 594.949219 938.222656 594.609375 943.636719 590.660156 C 948.941406 586.824219 951.421875 580.617188 950.179688 574.074219 L 930.773438 473.535156 L 1005.585938 403.578125 C 1010.324219 399.066406 1012.015625 392.632812 1009.984375 386.316406 C 1007.953125 380.109375 1002.761719 375.820312 996.21875 375.03125 L 894.664062 362.394531 L 851.222656 269.644531 C 848.402344 263.664062 842.761719 260.050781 836.105469 260.050781 C 829.558594 260.050781 823.917969 263.664062 821.097656 269.644531 L 777.65625 362.394531 L 381.371094 362.394531 Z M 388.707031 345.582031 " fill-opacity="1" fill-rule="evenodd"/></g><g clip-path="url(#36fd2242a5)"><path fill="#d0c8ff" d="M 741.207031 186.367188 L 83.257812 186.367188 C 57.871094 186.367188 27.179688 207.128906 14.992188 232.40625 L -64.785156 398.5 C -76.96875 423.890625 -66.25 444.539062 -40.863281 444.539062 L 219.566406 444.539062 L 234.347656 496.21875 C 238.859375 512.238281 255.671875 525.328125 271.695312 525.328125 L 731.503906 525.328125 L 722.140625 574.074219 C 720.898438 580.617188 723.378906 586.824219 728.683594 590.660156 C 734.097656 594.609375 740.757812 594.949219 746.511719 591.789062 L 836.105469 542.367188 L 925.808594 591.789062 C 931.5625 594.949219 938.222656 594.609375 943.636719 590.660156 C 948.941406 586.824219 951.421875 580.617188 950.179688 574.074219 L 930.773438 473.535156 L 1005.585938 403.578125 C 1010.324219 399.066406 1012.015625 392.632812 1009.984375 386.316406 C 1007.953125 380.109375 1002.761719 375.820312 996.21875 375.03125 L 894.664062 362.394531 L 851.222656 269.644531 C 848.402344 263.664062 842.761719 260.050781 836.105469 260.050781 C 829.558594 260.050781 823.917969 263.664062 821.097656 269.644531 L 777.65625 362.394531 L 381.371094 362.394531 L 388.707031 345.582031 L 710.742188 345.582031 L 765.128906 232.40625 C 777.316406 207.128906 766.484375 186.367188 741.207031 186.367188 Z M 741.207031 186.367188 " fill-opacity="1" fill-rule="evenodd"/></g><g clip-path="url(#a84883d8f9)"><path fill="#b172e8" d="M 944.304688 257.003906 C 950.511719 248.425781 960.4375 243.238281 971.386719 243.238281 C 984.585938 243.238281 996.097656 250.570312 1001.738281 262.53125 L 1014.261719 289.386719 C 1018.4375 292.546875 1021.824219 296.71875 1024.078125 301.683594 L 1045.515625 347.382812 L 1133.53125 358.328125 C 1146.621094 359.910156 1157.226562 368.710938 1161.289062 381.121094 C 1163.207031 387.101562 1163.433594 393.195312 1162.078125 398.835938 C 1172.234375 402.109375 1180.246094 409.894531 1183.632812 420.390625 C 1187.695312 432.914062 1184.308594 446.117188 1174.71875 455.140625 L 1106.789062 518.78125 L 1124.390625 610.179688 C 1126.761719 623.042969 1121.796875 635.792969 1111.191406 643.464844 C 1100.582031 651.253906 1086.816406 652.042969 1075.308594 645.722656 L 993.839844 600.8125 L 912.371094 645.722656 C 900.863281 652.042969 887.097656 651.25 876.488281 643.464844 C 865.996094 635.792969 860.917969 623.042969 863.398438 610.179688 L 863.511719 609.164062 C 860.238281 608.035156 857.082031 606.457031 854.148438 604.3125 C 846.472656 598.671875 841.621094 590.433594 840.605469 581.40625 L 429.316406 581.40625 C 405.394531 581.40625 382.265625 562.902344 375.832031 540.105469 L 372.785156 529.386719 C 363.644531 521.941406 356.535156 511.898438 353.378906 500.839844 L 353.378906 500.617188 L 116.757812 500.617188 C 102.429688 500.617188 88.4375 495.539062 79.523438 483.804688 C 73.203125 475.453125 70.835938 465.863281 71.058594 456.15625 C 65.757812 453.449219 60.902344 449.613281 57.066406 444.535156 C 45.105469 428.738281 47.136719 408.203125 55.261719 391.164062 L 135.152344 225.183594 C 149.367188 195.503906 185.136719 169.554688 218.539062 169.554688 L 876.488281 169.554688 C 890.933594 169.554688 904.8125 174.632812 913.835938 186.367188 C 920.042969 194.714844 922.527344 204.308594 922.1875 214.011719 C 927.601562 216.71875 932.34375 220.554688 936.179688 225.632812 C 943.289062 235 945.433594 246.058594 944.304688 257.003906 Z M 523.984375 345.582031 L 846.023438 345.582031 L 900.410156 232.40625 C 912.597656 207.128906 901.765625 186.367188 876.488281 186.367188 L 218.539062 186.367188 C 193.148438 186.367188 162.457031 207.128906 150.273438 232.40625 L 70.496094 398.5 C 58.308594 423.890625 69.027344 444.539062 94.417969 444.539062 L 354.84375 444.539062 L 369.628906 496.21875 C 374.140625 512.238281 390.953125 525.328125 406.976562 525.328125 L 866.785156 525.328125 L 857.417969 574.074219 C 856.179688 580.617188 858.660156 586.824219 863.964844 590.660156 C 869.378906 594.609375 876.039062 594.949219 881.792969 591.789062 L 971.382812 542.367188 L 1061.089844 591.789062 C 1066.84375 594.949219 1073.5 594.609375 1078.917969 590.660156 C 1084.21875 586.824219 1086.703125 580.617188 1085.460938 574.074219 L 1066.054688 473.535156 L 1140.863281 403.578125 C 1145.601562 399.066406 1147.296875 392.632812 1145.265625 386.316406 C 1143.234375 380.109375 1138.042969 375.820312 1131.5 375.03125 L 1029.945312 362.394531 L 986.503906 269.644531 C 983.683594 263.664062 978.039062 260.050781 971.382812 260.050781 C 964.839844 260.050781 959.199219 263.664062 956.375 269.644531 L 912.933594 362.394531 L 516.652344 362.394531 Z M 523.984375 345.582031 " fill-opacity="1" fill-rule="evenodd"/></g><g clip-path="url(#d1d7d8964f)"><path fill="#d0c8ff" d="M 876.488281 186.367188 L 218.539062 186.367188 C 193.148438 186.367188 162.457031 207.128906 150.273438 232.40625 L 70.496094 398.5 C 58.308594 423.890625 69.027344 444.539062 94.417969 444.539062 L 354.84375 444.539062 L 369.628906 496.21875 C 374.140625 512.238281 390.953125 525.328125 406.976562 525.328125 L 866.785156 525.328125 L 857.417969 574.074219 C 856.179688 580.617188 858.660156 586.824219 863.964844 590.660156 C 869.378906 594.609375 876.039062 594.949219 881.792969 591.789062 L 971.382812 542.367188 L 1061.089844 591.789062 C 1066.84375 594.949219 1073.5 594.609375 1078.917969 590.660156 C 1084.21875 586.824219 1086.703125 580.617188 1085.460938 574.074219 L 1066.054688 473.535156 L 1140.863281 403.578125 C 1145.601562 399.066406 1147.296875 392.632812 1145.265625 386.316406 C 1143.234375 380.109375 1138.042969 375.820312 1131.5 375.03125 L 1029.945312 362.394531 L 986.503906 269.644531 C 983.683594 263.664062 978.039062 260.050781 971.382812 260.050781 C 964.839844 260.050781 959.199219 263.664062 956.375 269.644531 L 912.933594 362.394531 L 516.652344 362.394531 L 523.984375 345.582031 L 846.023438 345.582031 L 900.410156 232.40625 C 912.59375 207.128906 901.765625 186.367188 876.488281 186.367188 Z M 876.488281 186.367188 " fill-opacity="1" fill-rule="evenodd"/></g><g clip-path="url(#735e870a9f)"><g clip-path="url(#c6352c2428)"><g clip-path="url(#0c861d00b4)"><path fill="#d0c8ff" d="M 489.613281 202.0625 L 725.914062 313.035156 L 638.773438 498.597656 L 402.472656 387.625 Z M 489.613281 202.0625 " fill-opacity="1" fill-rule="nonzero"/></g></g></g><g clip-path="url(#ee5d5c6f6d)"><path fill="#d0c8ff" d="M 189.265625 271.636719 L 615.609375 271.636719 L 615.609375 407.21875 L 189.265625 407.21875 Z M 189.265625 271.636719 " fill-opacity="1" fill-rule="nonzero"/></g><path stroke-linecap="butt" transform="matrix(1.528375, 0, 0, 1.528375, 147.977178, 231.043017)" fill="none" stroke-linejoin="miter" d="M 110.983462 37.450378 C 110.983462 55.410115 123.200275 69.973169 142.213009 69.973169 C 151.224825 69.973169 158.54469 68.345113 163.904241 62.988117 L 163.904241 37.450378 L 149.215952 37.450378 L 149.215952 57.309088 C 147.189188 57.963378 145.228875 58.282855 143.393797 58.282855 C 133.328984 58.282855 125.689642 49.526621 125.689642 37.514274 C 125.689642 24.052777 134.573667 17.451098 144.638481 17.451098 C 155.930087 17.451098 160.507558 25.361356 160.507558 25.361356 C 160.507558 25.361356 162.534322 18.4402 164.750217 13.080648 C 159.725478 7.52941 151.495742 4.978703 142.213009 4.978703 C 123.200275 4.978703 110.983462 19.539202 110.983462 37.450378 Z M 165.731651 29.604015 L 165.731651 29.938827 C 172.001074 29.938827 172.1442 37.450378 172.1442 39.270121 L 172.1442 60.897458 C 172.1442 64.166349 171.346785 67.693379 169.846519 68.999402 L 187.821591 68.999402 C 186.308547 67.693379 185.526466 64.102454 185.526466 60.833562 L 185.526466 22.284151 C 181.156016 24.962649 172.208096 29.284538 165.731651 29.604015 Z M 179.065357 19.158385 C 183.89841 19.158385 187.821591 15.232647 187.821591 10.46349 C 187.821591 5.632993 183.89841 1.707256 179.065357 1.707256 C 174.296199 1.707256 170.373018 5.632993 170.373018 10.46349 C 170.373018 15.232647 174.296199 19.158385 179.065357 19.158385 Z M 188.792802 29.604015 L 188.792802 29.938827 C 195.062225 29.938827 195.205351 37.450378 195.205351 39.270121 L 195.205351 60.897458 C 195.205351 64.166349 194.407936 67.693379 192.90767 68.999402 L 210.882742 68.999402 C 209.367142 67.693379 208.587617 64.102454 208.587617 60.833562 L 208.587617 39.988306 C 208.587617 36.399937 211.010533 34.437068 215.907481 34.437068 C 219.304164 34.437068 223.020324 36.016564 224.073322 37.833751 C 224.791507 33.527197 225.972295 28.630248 227.216979 24.643171 C 226.355668 23.526279 223.482928 22.284151 220.868325 22.284151 C 214.008508 22.284151 209.829745 29.348433 208.587617 35.091358 L 208.587617 22.284151 C 204.217167 24.962649 195.269247 29.284538 188.792802 29.604015 Z M 235.249916 19.746223 C 235.249916 21.565966 235.313812 53.513698 235.313812 53.513698 C 235.313812 64.038559 240.338551 69.973169 250.068552 69.973169 C 254.262651 69.973169 258.505309 68.536799 260.721204 66.448695 C 260.005575 63.51206 258.824787 59.716669 258.441414 55.808823 C 257.19673 57.245193 255.699021 58.027273 253.672256 58.027273 C 250.403365 58.027273 248.632182 56.527008 248.632182 50.577062 L 248.632182 2.760253 C 244.261733 5.441306 235.313812 9.747861 228.839923 10.064782 L 228.839923 10.399594 C 235.10679 10.399594 235.249916 17.913701 235.249916 19.746223 Z M 235.249916 19.746223 " stroke="#c06fd3" stroke-width="8.575101" stroke-opacity="1" stroke-miterlimit="4"/><g fill="#eeebec" fill-opacity="1"><g transform="translate(314.116352, 336.500913)"><g><path d="M 3.496094 -48.226562 C 3.496094 -20.769531 22.167969 1.496094 51.222656 1.496094 C 65 1.496094 76.183594 -1 84.371094 -9.1875 L 84.371094 -48.226562 L 61.90625 -48.226562 L 61.90625 -17.871094 C 58.8125 -16.875 55.816406 -16.375 53.019531 -16.375 C 37.644531 -16.375 25.960938 -29.753906 25.960938 -48.128906 C 25.960938 -68.695312 39.539062 -78.78125 54.917969 -78.78125 C 72.191406 -78.78125 79.179688 -66.699219 79.179688 -66.699219 C 79.179688 -66.699219 82.273438 -77.28125 85.671875 -85.46875 C 77.980469 -93.957031 65.402344 -97.851562 51.222656 -97.851562 C 22.167969 -97.851562 3.496094 -75.585938 3.496094 -48.226562 Z M 3.496094 -48.226562 "/></g></g></g><g fill="#eeebec" fill-opacity="1"><g transform="translate(405.275972, 336.500913)"><g><path d="M -3.992188 -60.207031 L -3.992188 -59.710938 C 5.589844 -59.710938 5.792969 -48.226562 5.792969 -45.429688 L 5.792969 -12.382812 C 5.792969 -7.390625 4.59375 -1.996094 2.296875 0 L 29.753906 0 C 27.457031 -1.996094 26.261719 -7.488281 26.261719 -12.480469 L 26.261719 -71.390625 C 19.570312 -67.296875 5.890625 -60.707031 -3.992188 -60.207031 Z M 16.375 -76.183594 C 23.765625 -76.183594 29.753906 -82.175781 29.753906 -89.464844 C 29.753906 -96.851562 23.765625 -102.84375 16.375 -102.84375 C 9.085938 -102.84375 3.09375 -96.851562 3.09375 -89.464844 C 3.09375 -82.175781 9.085938 -76.183594 16.375 -76.183594 Z M 16.375 -76.183594 "/></g></g></g><g fill="#eeebec" fill-opacity="1"><g transform="translate(440.521882, 336.500913)"><g><path d="M -3.992188 -60.207031 L -3.992188 -59.710938 C 5.589844 -59.710938 5.792969 -48.226562 5.792969 -45.429688 L 5.792969 -12.382812 C 5.792969 -7.390625 4.59375 -1.996094 2.296875 0 L 29.753906 0 C 27.457031 -1.996094 26.261719 -7.488281 26.261719 -12.480469 L 26.261719 -44.332031 C 26.261719 -49.824219 29.953125 -52.820312 37.441406 -52.820312 C 42.636719 -52.820312 48.328125 -50.421875 49.925781 -47.628906 C 51.023438 -54.21875 52.820312 -61.707031 54.71875 -67.796875 C 53.417969 -69.496094 49.027344 -71.390625 45.03125 -71.390625 C 34.546875 -71.390625 28.15625 -60.609375 26.261719 -51.820312 L 26.261719 -71.390625 C 19.570312 -67.296875 5.890625 -60.707031 -3.992188 -60.207031 Z M -3.992188 -60.207031 "/></g></g></g><g fill="#eeebec" fill-opacity="1"><g transform="translate(502.726181, 336.500913)"><g><path d="M 4.792969 -75.285156 C 4.792969 -72.488281 4.894531 -23.664062 4.894531 -23.664062 C 4.894531 -7.589844 12.582031 1.496094 27.457031 1.496094 C 33.847656 1.496094 40.339844 -0.699219 43.734375 -3.894531 C 42.636719 -8.386719 40.839844 -14.179688 40.238281 -20.167969 C 38.34375 -17.972656 36.046875 -16.773438 32.949219 -16.773438 C 27.957031 -16.773438 25.261719 -19.070312 25.261719 -28.15625 L 25.261719 -101.246094 C 18.570312 -97.152344 4.894531 -90.5625 -4.992188 -90.0625 L -4.992188 -89.5625 C 4.59375 -89.5625 4.792969 -78.082031 4.792969 -75.285156 Z M 4.792969 -75.285156 "/></g></g></g><g clip-path="url(#6548eae8f7)"><g clip-path="url(#e0dba6ce1c)"><g clip-path="url(#ba532da1d8)"><path fill="#b172e8" d="M 483.433594 615.75 C 608.316406 673.492188 720.730469 697.125 834.671875 689.601562 C 853.585938 688.351562 863.171875 686.5625 864.433594 684.035156 C 866.320312 680.257812 854.859375 679.167969 830.40625 680.804688 C 802.582031 682.664062 767.546875 679.949219 726.5 672.757812 C 581.71875 647.382812 420.117188 564.5625 315.777344 462.257812 C 173.949219 323.207031 167.460938 183.796875 300.625 136.71875 C 308.023438 134.105469 309.117188 133.585938 309.699219 132.421875 L 310.359375 131.097656 L 308.203125 130.019531 C 307.015625 129.429688 305.886719 129.042969 305.691406 129.164062 C 305.496094 129.285156 304.3125 129.179688 303.058594 128.929688 C 301.804688 128.675781 300.707031 128.617188 300.617188 128.796875 C 300.527344 128.976562 300.097656 128.945312 299.664062 128.726562 C 299.226562 128.507812 298.78125 128.507812 298.671875 128.726562 C 298.5625 128.945312 298.199219 128.984375 297.867188 128.820312 C 297.140625 128.457031 286.84375 128.382812 285.796875 128.734375 C 285.632812 128.789062 284.835938 128.824219 284.023438 128.820312 C 283.207031 128.8125 280.953125 128.964844 279.007812 129.160156 C 277.066406 129.355469 275.328125 129.445312 275.152344 129.355469 C 274.972656 129.269531 274.328125 129.390625 273.714844 129.628906 C 273.105469 129.867188 272.433594 129.980469 272.226562 129.875 C 272.019531 129.773438 271.152344 129.839844 270.296875 130.027344 C 269.445312 130.214844 267.28125 130.597656 265.492188 130.882812 C 249.007812 133.503906 214.78125 150.546875 197.925781 164.535156 C 98.746094 246.828125 166.78125 410.007812 355.242188 541.839844 C 392.125 567.640625 443.703125 597.378906 483.433594 615.75 " fill-opacity="1" fill-rule="evenodd"/></g></g></g><path stroke-linecap="butt" transform="matrix(1.528375, 0, 0, 1.528375, 297.710761, 382.783127)" fill="none" stroke-linejoin="miter" d="M 1.308694 69.000762 L 20.574455 69.000762 C 19.076745 67.692182 18.294664 64.167709 18.294664 60.898817 L 18.294664 36.39874 L 25.215821 52.267817 C 25.997902 52.730421 27.306481 53.129128 28.551164 53.129128 C 41.88487 53.129128 51.021921 41.949978 51.021921 29.078876 C 51.021921 15.632714 41.294476 5.951274 24.625427 5.951274 L 1.308694 5.951274 C 2.806404 7.259853 3.588484 10.863557 3.588484 14.117114 L 3.588484 60.834921 C 3.588484 64.103813 2.806404 67.692182 1.308694 69.000762 Z M 25.74232 18.375108 C 32.919058 18.375108 36.318297 23.591533 36.318297 29.078876 C 36.318297 35.217952 33.445557 40.641399 27.114794 40.641399 C 22.473428 40.641399 20.191082 38.169922 18.294664 33.909373 L 18.294664 18.375108 Z M 78.714215 69.971973 C 92.047921 69.971973 100.931946 60.436214 100.931946 46.128741 C 100.931946 31.821269 92.047921 22.282954 78.714215 22.282954 C 65.45974 22.282954 56.575715 31.821269 56.575715 46.128741 C 56.575715 60.436214 65.45974 69.971973 78.714215 69.971973 Z M 70.292793 46.192637 C 70.292793 39.268924 73.497789 34.709344 78.714215 34.709344 C 83.945976 34.709344 87.214868 39.268924 87.214868 46.192637 C 87.214868 53.065233 83.945976 57.627369 78.714215 57.627369 C 73.497789 57.627369 70.292793 53.065233 70.292793 46.192637 Z M 105.179716 23.272056 L 119.548528 69.000762 L 131.113607 69.000762 C 133.72821 63.912127 136.726185 58.680366 139.343343 53.640292 L 144.176396 69.000762 L 155.738919 69.000762 C 161.944447 56.781393 170.57289 44.181208 170.57289 33.656347 C 170.57289 27.849527 168.226649 23.655429 163.968655 22.282954 C 159.917682 24.708426 155.291651 27.259133 150.586389 28.488482 L 150.586389 28.823294 C 155.227755 28.823294 157.573997 32.618684 157.573997 36.334845 C 157.573997 41.040107 154.701257 46.990052 152.278341 51.296606 L 145.546315 29.940187 C 144.76679 26.078345 142.612235 23.335951 139.343343 22.282954 C 135.292371 24.708426 130.651004 27.259133 125.961077 28.488482 L 125.961077 28.823294 C 130.587109 28.823294 132.946129 32.618684 132.946129 36.334845 C 132.946129 41.040107 130.075945 46.990052 127.714369 51.232711 L 118.894239 23.272056 Z M 199.382077 69.971973 C 206.175443 69.971973 212.843573 66.846207 216.702859 60.771026 C 214.021806 58.345554 210.752914 55.012767 208.600914 51.616084 C 207.611813 53.320815 204.739073 56.973079 199.972471 56.973079 C 195.075523 56.973079 191.86797 54.230686 190.832864 49.58932 L 198.472205 49.58932 C 211.854471 49.58932 216.559733 42.93908 216.559733 36.334845 C 216.559733 29.413688 209.970833 22.282954 200.033811 22.282954 C 184.420315 22.282954 176.780973 33.193744 176.780973 46.128741 C 176.780973 59.063739 183.957712 69.971973 199.382077 69.971973 Z M 190.689738 48.871135 C 190.561947 48.025159 190.498052 47.117843 190.498052 46.128741 C 190.498052 38.425504 195.855047 34.310636 199.635103 34.310636 C 202.459282 34.310636 203.56084 36.334845 203.56084 38.106027 C 203.56084 43.7825 196.97194 47.708237 190.689738 48.871135 Z M 217.671514 29.605374 L 217.671514 29.940187 C 223.938382 29.940187 224.084063 37.451737 224.084063 39.268924 L 224.084063 60.898817 C 224.084063 64.167709 223.286648 67.692182 221.786382 69.000762 L 239.761454 69.000762 C 238.245854 67.692182 237.463773 64.103813 237.463773 60.834921 L 237.463773 39.987109 C 237.463773 36.39874 239.889245 34.435871 244.786194 34.435871 C 248.182876 34.435871 251.899037 36.015367 252.952034 37.83511 C 253.670219 33.528556 254.851007 28.631607 256.093135 24.64453 C 255.231824 23.527638 252.36164 22.282954 249.747037 22.282954 C 242.88722 22.282954 238.708457 29.349792 237.463773 35.090161 L 237.463773 22.282954 C 233.095879 24.964008 224.147959 29.285897 217.671514 29.605374 Z M 294.496865 69.971973 C 303.779598 69.971973 312.009333 67.372705 317.034073 61.806132 C 314.818178 56.464472 312.791414 49.525424 312.791414 49.525424 C 312.791414 49.525424 308.213943 57.435683 296.922336 57.435683 C 291.100182 57.435683 285.676735 55.219788 282.152261 50.770108 C 279.409868 44.372894 285.74063 41.423479 293.650889 41.423479 C 298.739523 41.423479 303.907388 43.654709 306.521991 45.873159 L 306.521991 31.437896 C 305.471549 29.477583 300.909413 27.770297 296.922336 27.770297 C 286.538046 27.770297 279.282077 36.334845 279.997706 47.309529 C 278.691683 44.628476 277.973498 41.359584 277.973498 37.515633 C 277.973498 24.054136 286.857523 17.449901 296.922336 17.449901 C 308.213943 17.449901 312.791414 25.362716 312.791414 25.362716 C 312.791414 25.362716 314.818178 18.439003 317.034073 13.079452 C 312.009333 7.530769 303.779598 4.977507 294.496865 4.977507 C 275.48413 4.977507 263.267318 19.540561 263.267318 37.451737 C 263.267318 55.347579 275.48413 69.971973 294.496865 69.971973 Z M 335.975244 69.971973 C 338.99111 69.971973 341.477921 69.000762 343.042082 67.436601 L 348.130717 54.358477 L 348.130717 69.000762 L 363.808108 69.000762 C 362.310398 67.692182 361.528318 64.231604 361.528318 60.960156 L 361.528318 2.697717 C 357.157868 5.376214 348.194612 9.682769 341.733503 10.002246 L 341.733503 10.337058 C 348.002926 10.337058 348.130717 17.848609 348.130717 19.683687 L 348.130717 24.772321 C 346.247079 23.335951 343.824163 22.282954 340.61661 22.282954 C 326.582611 22.282954 321.286955 34.834579 321.286955 46.128741 C 321.286955 57.036975 325.657404 69.971973 335.975244 69.971973 Z M 334.54143 47.309529 C 334.54143 40.577503 338.002008 33.848033 344.670139 33.848033 C 345.976162 33.848033 347.029159 33.991159 348.130717 34.310636 L 348.130717 52.140027 C 346.630452 55.155892 344.414557 57.563474 340.680506 57.563474 C 336.71132 57.563474 334.54143 54.102895 334.54143 47.309529 Z M 334.54143 47.309529 " stroke="#c06fd3" stroke-width="8.575008" stroke-opacity="1" stroke-miterlimit="4"/><g fill="#eeebec" fill-opacity="1"><g transform="translate(297.710761, 488.241023)"><g><path d="M 1.996094 0 L 31.453125 0 C 29.15625 -1.996094 27.957031 -7.390625 27.957031 -12.382812 L 27.957031 -49.824219 L 38.542969 -25.5625 C 39.738281 -24.863281 41.738281 -24.261719 43.632812 -24.261719 C 64.003906 -24.261719 77.980469 -41.335938 77.980469 -61.007812 C 77.980469 -81.578125 63.105469 -96.355469 37.644531 -96.355469 L 1.996094 -96.355469 C 4.292969 -94.355469 5.492188 -88.867188 5.492188 -83.871094 L 5.492188 -12.480469 C 5.492188 -7.488281 4.292969 -1.996094 1.996094 0 Z M 39.339844 -77.382812 C 50.324219 -77.382812 55.515625 -69.394531 55.515625 -61.007812 C 55.515625 -51.621094 51.121094 -43.335938 41.4375 -43.335938 C 34.347656 -43.335938 30.851562 -47.128906 27.957031 -53.617188 L 27.957031 -77.382812 Z M 39.339844 -77.382812 "/></g></g></g><g fill="#eeebec" fill-opacity="1"><g transform="translate(381.182195, 488.241023)"><g><path d="M 36.84375 1.496094 C 57.214844 1.496094 70.792969 -13.082031 70.792969 -34.945312 C 70.792969 -56.8125 57.214844 -71.390625 36.84375 -71.390625 C 16.574219 -71.390625 2.996094 -56.8125 2.996094 -34.945312 C 2.996094 -13.082031 16.574219 1.496094 36.84375 1.496094 Z M 23.964844 -34.847656 C 23.964844 -45.429688 28.855469 -52.421875 36.84375 -52.421875 C 44.832031 -52.421875 49.824219 -45.429688 49.824219 -34.847656 C 49.824219 -24.363281 44.832031 -17.375 36.84375 -17.375 C 28.855469 -17.375 23.964844 -24.363281 23.964844 -34.847656 Z M 23.964844 -34.847656 "/></g></g></g><g fill="#eeebec" fill-opacity="1"><g transform="translate(458.463191, 488.241023)"><g><path d="M 0 -69.894531 L 21.964844 0 L 39.640625 0 C 43.632812 -7.789062 48.226562 -15.777344 52.222656 -23.464844 L 59.609375 0 L 77.28125 0 C 86.769531 -18.671875 99.949219 -37.941406 99.949219 -54.019531 C 99.949219 -62.90625 96.355469 -69.296875 89.863281 -71.390625 C 83.671875 -67.699219 76.585938 -63.804688 69.394531 -61.90625 L 69.394531 -61.40625 C 76.484375 -61.40625 80.078125 -55.617188 80.078125 -49.925781 C 80.078125 -42.734375 75.683594 -33.648438 71.992188 -27.058594 L 61.707031 -59.710938 C 60.507812 -65.601562 57.214844 -69.792969 52.222656 -71.390625 C 46.03125 -67.699219 38.941406 -63.804688 31.75 -61.90625 L 31.75 -61.40625 C 38.839844 -61.40625 42.4375 -55.617188 42.4375 -49.925781 C 42.4375 -42.734375 38.042969 -33.648438 34.449219 -27.160156 L 20.96875 -69.894531 Z M 0 -69.894531 "/></g></g></g><g fill="#eeebec" fill-opacity="1"><g transform="translate(564.899178, 488.241023)"><g><path d="M 37.542969 1.496094 C 47.925781 1.496094 58.113281 -3.296875 64.003906 -12.582031 C 59.910156 -16.273438 54.917969 -21.367188 51.621094 -26.558594 C 50.125 -23.964844 45.730469 -18.371094 38.441406 -18.371094 C 30.953125 -18.371094 26.058594 -22.566406 24.464844 -29.65625 L 36.144531 -29.65625 C 56.613281 -29.65625 63.804688 -39.839844 63.804688 -49.925781 C 63.804688 -60.507812 53.71875 -71.390625 38.542969 -71.390625 C 14.679688 -71.390625 2.996094 -54.71875 2.996094 -34.945312 C 2.996094 -15.175781 13.980469 1.496094 37.542969 1.496094 Z M 24.261719 -30.753906 C 24.0625 -32.050781 23.964844 -33.449219 23.964844 -34.945312 C 23.964844 -46.730469 32.152344 -53.019531 37.941406 -53.019531 C 42.234375 -53.019531 43.933594 -49.925781 43.933594 -47.226562 C 43.933594 -38.542969 33.847656 -32.550781 24.261719 -30.753906 Z M 24.261719 -30.753906 "/></g></g></g><g fill="#eeebec" fill-opacity="1"><g transform="translate(634.39219, 488.241023)"><g><path d="M -3.992188 -60.207031 L -3.992188 -59.710938 C 5.589844 -59.710938 5.792969 -48.226562 5.792969 -45.429688 L 5.792969 -12.382812 C 5.792969 -7.390625 4.59375 -1.996094 2.296875 0 L 29.753906 0 C 27.457031 -1.996094 26.261719 -7.488281 26.261719 -12.480469 L 26.261719 -44.332031 C 26.261719 -49.824219 29.953125 -52.820312 37.441406 -52.820312 C 42.636719 -52.820312 48.328125 -50.421875 49.925781 -47.628906 C 51.023438 -54.21875 52.820312 -61.707031 54.71875 -67.796875 C 53.417969 -69.496094 49.027344 -71.390625 45.03125 -71.390625 C 34.546875 -71.390625 28.15625 -60.609375 26.261719 -51.820312 L 26.261719 -71.390625 C 19.570312 -67.296875 5.890625 -60.707031 -3.992188 -60.207031 Z M -3.992188 -60.207031 "/></g></g></g><g fill="#eeebec" fill-opacity="1"><g transform="translate(696.596477, 488.241023)"><g><path d="M 51.222656 1.496094 C 65.402344 1.496094 77.980469 -2.496094 85.671875 -10.984375 C 82.273438 -19.171875 79.179688 -29.753906 79.179688 -29.753906 C 79.179688 -29.753906 72.191406 -17.671875 54.917969 -17.671875 C 46.03125 -17.671875 37.742188 -21.066406 32.351562 -27.859375 C 28.15625 -37.644531 37.84375 -42.136719 49.925781 -42.136719 C 57.710938 -42.136719 65.601562 -38.742188 69.59375 -35.347656 L 69.59375 -57.414062 C 67.996094 -60.410156 61.007812 -63.003906 54.917969 -63.003906 C 39.039062 -63.003906 27.957031 -49.925781 29.054688 -33.148438 C 27.058594 -37.242188 25.960938 -42.234375 25.960938 -48.128906 C 25.960938 -68.695312 39.539062 -78.78125 54.917969 -78.78125 C 72.191406 -78.78125 79.179688 -66.699219 79.179688 -66.699219 C 79.179688 -66.699219 82.273438 -77.28125 85.671875 -85.46875 C 77.980469 -93.957031 65.402344 -97.851562 51.222656 -97.851562 C 22.167969 -97.851562 3.496094 -75.585938 3.496094 -48.226562 C 3.496094 -20.867188 22.167969 1.496094 51.222656 1.496094 Z M 51.222656 1.496094 "/></g></g></g><g fill="#eeebec" fill-opacity="1"><g transform="translate(785.759136, 488.241023)"><g><path d="M 25.460938 1.496094 C 30.054688 1.496094 33.847656 0 36.246094 -2.394531 L 44.035156 -22.367188 L 44.035156 0 L 67.996094 0 C 65.699219 -1.996094 64.503906 -7.289062 64.503906 -12.28125 L 64.503906 -101.347656 C 57.8125 -97.253906 44.132812 -90.664062 34.25 -90.164062 L 34.25 -89.664062 C 43.832031 -89.664062 44.035156 -78.179688 44.035156 -75.386719 L 44.035156 -67.597656 C 41.136719 -69.792969 37.441406 -71.390625 32.550781 -71.390625 C 11.082031 -71.390625 2.996094 -52.222656 2.996094 -34.945312 C 2.996094 -18.273438 9.683594 1.496094 25.460938 1.496094 Z M 23.265625 -33.148438 C 23.265625 -43.433594 28.558594 -53.71875 38.742188 -53.71875 C 40.738281 -53.71875 42.335938 -53.519531 44.035156 -53.019531 L 44.035156 -25.761719 C 41.738281 -21.167969 38.34375 -17.472656 32.652344 -17.472656 C 26.558594 -17.472656 23.265625 -22.765625 23.265625 -33.148438 Z M 23.265625 -33.148438 "/></g></g></g></svg>