<svg xmlns="http://www.w3.org/2000/svg" xmlns:xlink="http://www.w3.org/1999/xlink" width="1440" zoomAndPan="magnify" viewBox="0 0 1080 767.999994" height="1024" preserveAspectRatio="xMidYMid meet" version="1.0"><defs><clipPath id="05c13defac"><path d="M 770 359 L 900.492188 359 L 900.492188 490 L 770 490 Z M 770 359 " clip-rule="nonzero"/></clipPath></defs><path fill="#ffffff" d="M 387.324219 339.476562 C 384.023438 340.367188 381.449219 343.382812 374.910156 344.28125 C 368.015625 345.226562 364.375 344.460938 360.941406 345.011719 C 357.5625 345.558594 354.363281 347.242188 347.582031 348.171875 C 341.003906 349.078125 337.792969 350.636719 334.355469 350.742188 C 330.828125 350.847656 327.042969 348.75 319.96875 349.71875 C 313.066406 350.667969 309.632812 351.414062 306.195312 351.992188 C 303.519531 352.441406 301.519531 352.425781 297.140625 353.054688 C 296.710938 348.996094 297.519531 347.34375 297.5 344.691406 C 297.476562 341.117188 295.777344 337.457031 294.796875 330.316406 C 293.816406 323.183594 291.078125 320.128906 290.132812 316.6875 C 289.230469 313.390625 291.246094 309.621094 290.347656 303.097656 C 289.394531 296.164062 287.542969 292.894531 286.914062 289.449219 C 286.308594 286.105469 288 282.425781 287.074219 275.691406 C 286.203125 269.347656 284.617188 266.46875 284.871094 263.101562 C 285.148438 259.398438 284.308594 257.144531 283.300781 249.816406 C 279.25 247.4375 278.324219 246.25 274.839844 249.398438 C 275.710938 255.742188 274.070312 258.902344 273.816406 262.265625 C 273.539062 265.972656 275.375 269.832031 276.382812 277.160156 C 277.335938 284.101562 277.765625 287.554688 278.394531 291 C 279.003906 294.347656 277.542969 297.996094 278.46875 304.730469 C 279.449219 311.863281 281.820312 315.265625 282.761719 318.707031 C 283.667969 322.003906 283.34375 325.242188 284.238281 331.769531 C 285.136719 338.304688 285.214844 341.347656 285.238281 344.773438 C 285.257812 347.578125 286.636719 350.515625 287.121094 355.089844 C 284.15625 355.277344 281.960938 355.230469 279.769531 355.136719 C 276.113281 354.976562 272.070312 352.832031 264.808594 353.828125 C 257.441406 354.84375 253.933594 357.785156 250.433594 359.121094 C 247.289062 360.316406 244.226562 360.101562 237.921875 360.96875 C 231.433594 361.859375 228.488281 361.652344 225.078125 361.589844 C 221.457031 361.523438 217.601562 362.796875 210.394531 363.789062 C 203.253906 364.769531 199.875 366.6875 196.425781 367.613281 C 193.109375 368.496094 188.726562 368.339844 182.167969 369.238281 C 180.011719 373.414062 182.601562 374.464844 185.941406 377.769531 C 193.082031 376.785156 194.914062 375.789062 198.363281 374.863281 C 201.679688 373.980469 205.382812 375.960938 211.945312 375.058594 C 218.433594 374.167969 221.460938 372.84375 224.867188 372.90625 C 228.488281 372.972656 232.40625 374.316406 239.621094 373.324219 C 246.988281 372.3125 250.902344 370.859375 254.402344 369.523438 C 257.546875 368.328125 260.058594 366.023438 266.367188 365.15625 C 272.78125 364.273438 276.058594 362.347656 279.445312 362.492188 C 282.015625 362.605469 285.308594 363.84375 289.164062 363.554688 C 289.898438 367.449219 291.128906 370.570312 291.875 373.050781 C 292.855469 376.3125 294.617188 379.464844 295.507812 385.9375 C 296.414062 392.535156 295.03125 396.042969 295.140625 399.480469 C 295.25 403.015625 295.214844 406.632812 296.1875 413.71875 C 297.164062 420.8125 295.710938 424.898438 296.554688 428.332031 C 297.382812 431.683594 300.070312 434.367188 300.980469 440.972656 C 301.882812 447.542969 301.933594 450.777344 301.988281 454.210938 C 302.046875 457.773438 302.929688 460.105469 303.910156 467.238281 C 307.996094 469.558594 308.664062 470.140625 312.097656 466.933594 C 311.195312 460.359375 311.128906 457.503906 311.078125 454.070312 C 311.019531 450.503906 311.964844 446.726562 310.984375 439.597656 C 310.011719 432.503906 307.738281 429.226562 306.890625 425.789062 C 306.0625 422.441406 307.09375 418.949219 306.1875 412.34375 C 305.28125 405.753906 303.050781 402.679688 302.941406 399.238281 C 302.832031 395.707031 303.507812 392.058594 302.535156 384.972656 C 301.546875 377.773438 302.703125 373.570312 301.660156 370.113281 C 301.011719 367.945312 298.769531 366.691406 298.164062 363.636719 C 302.621094 362.996094 305.21875 362.882812 307.945312 362.425781 C 311.316406 361.859375 314.714844 361.683594 321.484375 360.753906 C 328.066406 359.851562 331.199219 360.007812 334.632812 359.902344 C 338.160156 359.796875 341.695312 357.796875 348.769531 356.824219 C 355.664062 355.878906 359.382812 357.175781 362.816406 356.621094 C 366.195312 356.078125 369.4375 354.753906 376.21875 353.820312 C 383.347656 352.84375 386.664062 350.722656 390.109375 349.792969 C 393.414062 348.902344 395.035156 347.84375 401.578125 346.945312 C 403.730469 342.769531 405.15625 341.957031 401.816406 338.652344 C 394.683594 339.632812 390.769531 338.550781 387.324219 339.476562 Z M 387.324219 339.476562 " fill-opacity="1" fill-rule="nonzero"/><path fill="#ffffff" d="M 344.472656 295.097656 C 342.765625 290.722656 342.226562 291.34375 337.539062 290.988281 C 333.875 295.824219 333.117188 296.019531 331.417969 298.609375 C 334.34375 302.285156 334.164062 301.773438 338.683594 303.0625 C 340.292969 300.605469 340.992188 299.683594 344.472656 295.097656 Z M 344.472656 295.097656 " fill-opacity="1" fill-rule="nonzero"/><path fill="#ffffff" d="M 272.464844 376.964844 C 268.144531 382.667969 265.738281 385.644531 263.992188 388.738281 C 263.777344 389.121094 264.617188 389.660156 264.976562 389.910156 C 268.828125 392.597656 269.3125 391.464844 273.597656 393.382812 C 274.007812 393.566406 272.03125 393.792969 272.25 393.402344 C 273.914062 390.453125 276.105469 387.910156 280.042969 382.714844 C 284.371094 377.015625 286.574219 374.179688 288.046875 371.460938 C 284.816406 368.046875 284.554688 367.691406 279.949219 366.777344 C 278.566406 369.339844 276.355469 371.839844 272.464844 376.964844 Z M 272.464844 376.964844 " fill-opacity="1" fill-rule="nonzero"/><path fill="#ffffff" d="M 304.664062 348.570312 C 306.941406 346.207031 309.878906 345.640625 314.203125 339.945312 C 318.289062 334.550781 320.308594 331.714844 322.285156 328.957031 C 322.546875 328.597656 322.011719 327.972656 321.675781 327.679688 C 318.136719 324.589844 318.015625 324.796875 313.957031 322.429688 C 313.566406 322.203125 313.453125 322.070312 313.191406 322.433594 C 311.25 325.136719 309.476562 328.023438 305.464844 333.320312 C 301.476562 338.574219 299.652344 341.113281 297.453125 343.40625 C 298.214844 347.882812 300.394531 346.617188 304.664062 348.570312 Z M 304.664062 348.570312 " fill-opacity="1" fill-rule="nonzero"/><path fill="#ffffff" d="M 240.289062 420.207031 C 241.960938 424.597656 242.300781 423.894531 246.972656 424.375 C 250.417969 419.828125 251.265625 420.183594 253.238281 418.40625 C 251.164062 414.195312 251.535156 414.53125 247.335938 412.425781 C 244.597656 414.890625 243.839844 415.53125 240.289062 420.207031 Z M 240.289062 420.207031 " fill-opacity="1" fill-rule="nonzero"/><path fill="#ffffff" d="M 347.96875 404.101562 C 350.285156 406.183594 351.3125 407.925781 356.171875 411.609375 C 360.59375 410.015625 361.933594 408.671875 362.414062 403.996094 C 357.851562 400.535156 354.398438 397.117188 352.222656 395.171875 C 347.898438 396.457031 349.84375 399.796875 347.96875 404.101562 Z M 347.96875 404.101562 " fill-opacity="1" fill-rule="nonzero"/><path fill="#ffffff" d="M 315.847656 374.035156 C 310.703125 370.132812 309.65625 367.640625 307.191406 365.542969 C 303.148438 367.9375 303.632812 367.90625 301.976562 372.300781 C 304.542969 374.480469 306.441406 375.316406 311.800781 379.375 C 317.730469 383.867188 320.734375 386.515625 324.050781 387.902344 C 324.425781 388.0625 325.316406 388.710938 325.507812 388.351562 C 327.703125 384.199219 325.367188 383.28125 326.800781 378.808594 C 326.929688 378.40625 328.503906 378.367188 328.113281 378.203125 C 325.042969 376.914062 320.832031 377.804688 315.847656 374.035156 Z M 315.847656 374.035156 " fill-opacity="1" fill-rule="nonzero"/><path fill="#ffffff" d="M 278.800781 353.964844 C 282.90625 351.679688 282.382812 350.929688 284.253906 346.621094 C 281.882812 344.46875 279.375 343.300781 273.742188 339.019531 C 268.472656 335.027344 267.230469 332.773438 264.144531 329.914062 C 259.953125 332.0625 259.605469 332.085938 258.121094 336.558594 C 260.683594 338.9375 262.859375 341.660156 268.496094 345.929688 C 273.792969 349.953125 276.46875 351.839844 278.800781 353.964844 Z M 278.800781 353.964844 " fill-opacity="1" fill-rule="nonzero"/><path fill="#ffffff" d="M 238.320312 311.480469 C 236.070312 310.21875 234.519531 307.679688 229.875 304.15625 C 225.488281 305.839844 226.476562 308.429688 226.019531 313.105469 C 230.632812 316.601562 231.578125 316.738281 234.714844 318.492188 C 238.820312 316.527344 237.195312 316.039062 238.320312 311.480469 Z M 238.320312 311.480469 " fill-opacity="1" fill-rule="nonzero"/><g clip-path="url(#05c13defac)"><path fill="#ffffff" d="M 884.183594 426.222656 C 880.109375 425.933594 876.257812 425.660156 868.441406 424.4375 C 860.09375 423.128906 855.757812 423.074219 851.5625 423.015625 C 849.578125 422.988281 847.636719 422.957031 845.269531 422.796875 C 846.9375 421.59375 848.777344 420.261719 851.132812 418.542969 C 857.488281 413.90625 860.730469 411.871094 864.171875 409.710938 C 867.59375 407.558594 871.136719 405.332031 877.773438 400.492188 L 872.234375 392.902344 C 865.863281 397.550781 862.613281 399.589844 859.171875 401.753906 C 855.753906 403.90625 852.214844 406.125 845.59375 410.953125 C 843.53125 412.457031 841.871094 413.660156 840.355469 414.757812 C 840.863281 412.972656 841.371094 411.382812 841.894531 409.820312 C 843.246094 405.796875 844.644531 401.640625 845.960938 393.230469 C 847.253906 384.953125 847.433594 380.667969 847.613281 376.53125 C 847.785156 372.472656 847.953125 368.640625 849.164062 360.882812 L 839.878906 359.429688 C 838.585938 367.707031 838.40625 371.992188 838.226562 376.128906 C 838.054688 380.1875 837.886719 384.019531 836.675781 391.777344 C 835.484375 399.402344 834.273438 403.007812 832.992188 406.828125 C 832.65625 407.824219 832.320312 408.832031 831.980469 409.90625 C 831.546875 409.296875 831.195312 408.777344 830.710938 408.109375 C 825.839844 401.4375 823.058594 398.265625 820.375 395.199219 C 817.707031 392.152344 815.183594 389.277344 810.5625 382.9375 L 802.972656 388.476562 C 807.84375 395.148438 810.621094 398.320312 813.304688 401.390625 C 815.976562 404.433594 818.496094 407.3125 823.117188 413.648438 C 825.003906 416.234375 826.371094 418.234375 827.546875 420.027344 C 824.976562 419.382812 822.941406 418.730469 820.894531 418.058594 C 816.867188 416.738281 812.707031 415.367188 804.300781 414.054688 C 796.34375 412.808594 792.386719 412.058594 788.433594 411.304688 C 784.398438 410.539062 780.367188 409.769531 772.261719 408.503906 L 770.808594 417.789062 C 778.761719 419.03125 782.71875 419.78125 786.675781 420.535156 C 790.707031 421.304688 794.742188 422.070312 802.847656 423.339844 C 810.503906 424.535156 814.125 425.722656 817.964844 426.988281 C 819.144531 427.375 820.382812 427.765625 821.695312 428.160156 C 820.957031 428.699219 820.304688 429.171875 819.464844 429.785156 C 812.6875 434.730469 809.605469 437.734375 806.625 440.640625 C 803.75 443.441406 801.035156 446.085938 794.800781 450.632812 L 800.339844 458.222656 C 807.117188 453.28125 810.199219 450.273438 813.179688 447.371094 C 816.054688 444.570312 818.769531 441.925781 825.003906 437.378906 C 826.09375 436.578125 826.980469 435.9375 827.90625 435.265625 C 827.902344 437.230469 827.960938 439.019531 828.046875 440.707031 C 828.253906 444.726562 828.445312 448.515625 827.261719 456.066406 C 826.054688 463.804688 824.988281 467.484375 823.859375 471.386719 C 822.699219 475.398438 821.496094 479.542969 820.195312 487.871094 L 829.480469 489.320312 C 830.6875 481.585938 831.753906 477.902344 832.882812 474 C 834.042969 469.992188 835.246094 465.84375 836.546875 457.519531 C 837.878906 449.007812 837.648438 444.542969 837.429688 440.230469 C 837.355469 438.777344 837.308594 437.296875 837.300781 435.714844 C 838.292969 437.171875 839.410156 438.769531 840.773438 440.640625 C 845.644531 447.3125 848.445312 450.46875 851.15625 453.519531 C 853.839844 456.542969 856.371094 459.394531 860.976562 465.707031 L 868.566406 460.167969 C 863.695312 453.492188 860.894531 450.335938 858.179688 447.28125 C 855.5 444.261719 852.972656 441.410156 848.367188 435.101562 C 847.589844 434.035156 846.984375 433.164062 846.347656 432.257812 C 848.175781 432.34375 849.851562 432.390625 851.433594 432.410156 C 855.480469 432.464844 859.300781 432.519531 866.988281 433.722656 C 875.199219 435.003906 879.429688 435.304688 883.519531 435.59375 C 887.59375 435.886719 891.441406 436.160156 899.261719 437.382812 L 900.714844 428.097656 C 892.5 426.8125 888.273438 426.515625 884.183594 426.222656 Z M 884.183594 426.222656 " fill-opacity="1" fill-rule="nonzero"/></g><path fill="#ffffff" d="M 593.523438 299.359375 L 593.554688 302.160156 C 591.105469 302.1875 588.367188 299.394531 588.144531 296.957031 C 587.835938 293.550781 589.042969 293.441406 588.738281 290.035156 C 586.964844 270.328125 586.867188 254.390625 584.113281 242.230469 C 579.09375 220.03125 568.765625 210.949219 551.929688 204.894531 C 540.128906 200.65625 526.890625 197.980469 500.90625 195.515625 C 498.515625 195.289062 497.121094 193.148438 497.09375 190.746094 C 497.066406 188.34375 498.40625 186.105469 500.792969 185.828125 C 524.242188 183.09375 539.050781 180.105469 551.59375 175.285156 C 567.230469 169.277344 572.996094 160.578125 577.929688 136.316406 C 578.636719 132.851562 579.589844 129.285156 580.488281 125.433594 C 583.226562 113.691406 584.816406 100.117188 586.023438 82.710938 C 586.191406 80.269531 588.679688 78.148438 591.128906 78.121094 L 591.128906 78.066406 C 593.578125 78.039062 597.070312 80.074219 597.292969 82.511719 C 599.355469 105.203125 602.269531 121.605469 605.539062 136.0625 C 610.582031 158.34375 615.09375 171.183594 631.789062 177.1875 C 640.824219 180.433594 653.917969 180.003906 670.28125 181.285156 C 675.824219 181.71875 681.492188 184.574219 687.679688 185.164062 C 690.070312 185.390625 693.625 186.21875 693.648438 188.621094 C 693.675781 191.019531 690.28125 193.109375 687.894531 193.386719 C 679.484375 194.367188 671.625 195.625 664.335938 196.160156 C 650.960938 197.140625 639.539062 197.746094 631.78125 200.730469 C 615.457031 207.003906 604.960938 218.757812 600.273438 241.785156 C 598.605469 249.988281 599.628906 260.351562 599.269531 272.027344 C 599.042969 279.507812 600.304688 287.835938 599.675781 296.898438 C 599.507812 299.339844 595.972656 299.332031 593.523438 299.359375 Z M 534.710938 190.21875 C 541.679688 191.457031 550.03125 192.046875 555.800781 194.121094 C 575.652344 201.257812 586.390625 215.230469 592.085938 240.425781 C 592.257812 241.179688 591.972656 242.585938 592.136719 243.359375 C 592.289062 242.453125 594.097656 241.441406 594.277344 240.566406 C 599.605469 214.351562 608.414062 197.964844 627.84375 190.496094 C 631.121094 189.242188 635.046875 189.292969 639.089844 188.578125 C 635.246094 187.851562 632.019531 186.578125 628.828125 185.429688 C 608.253906 178.035156 600.675781 162.875 595.144531 138.414062 C 593.648438 131.816406 591.59375 125.152344 590.203125 117.332031 C 589.402344 121.035156 588.4375 123.871094 587.683594 127.109375 C 586.804688 130.867188 585.855469 134.40625 585.167969 137.785156 C 580.652344 159.992188 577 177.007812 555.441406 185.296875 C 549.742188 187.484375 541.671875 188.761719 534.710938 190.21875 Z M 534.710938 190.21875 " fill-opacity="1" fill-rule="nonzero"/><path fill="#ffffff" d="M 589.140625 510.761719 L 589.140625 508.492188 C 590.953125 508.492188 592.957031 510.78125 593.101562 512.757812 C 593.304688 515.523438 592.410156 515.601562 592.609375 518.363281 C 593.761719 534.363281 593.707031 547.28125 595.644531 557.164062 C 599.183594 575.210938 606.75 582.664062 619.152344 587.71875 C 627.847656 591.261719 637.621094 593.546875 656.816406 595.769531 C 658.585938 595.972656 659.601562 597.722656 659.601562 599.671875 C 659.601562 601.617188 658.589844 603.421875 656.824219 603.625 C 639.457031 605.636719 628.484375 607.933594 619.164062 611.730469 C 607.550781 616.464844 603.21875 623.46875 599.375 643.09375 C 598.824219 645.894531 598.089844 648.78125 597.394531 651.898438 C 595.277344 661.390625 593.992188 672.386719 592.960938 686.488281 C 592.816406 688.464844 590.960938 690.160156 589.148438 690.160156 L 589.148438 690.207031 C 587.335938 690.207031 584.769531 688.527344 584.625 686.546875 C 583.277344 668.132812 581.253906 654.808594 578.953125 643.058594 C 575.402344 624.949219 572.164062 614.5 559.863281 609.488281 C 553.207031 606.773438 543.519531 607.007812 531.425781 605.828125 C 527.332031 605.425781 523.160156 603.058594 518.589844 602.53125 C 516.824219 602.324219 514.199219 601.621094 514.199219 599.675781 C 514.199219 597.726562 516.730469 596.0625 518.496094 595.859375 C 524.726562 595.136719 530.550781 594.1875 535.941406 593.820312 C 545.84375 593.140625 554.296875 592.746094 560.058594 590.394531 C 572.183594 585.453125 580.039062 576.015625 583.691406 557.386719 C 584.992188 550.75 584.316406 542.339844 584.675781 532.875 C 584.902344 526.8125 584.035156 520.046875 584.574219 512.707031 C 584.71875 510.726562 587.332031 510.761719 589.140625 510.761719 Z M 631.769531 599.769531 C 626.628906 598.703125 620.457031 598.152344 616.203125 596.421875 C 601.578125 590.460938 593.746094 579.039062 589.734375 558.558594 C 589.613281 557.949219 589.835938 556.808594 589.722656 556.179688 C 589.601562 556.914062 588.253906 557.71875 588.117188 558.425781 C 583.964844 579.632812 577.320312 592.84375 562.886719 598.730469 C 560.453125 599.71875 557.550781 599.644531 554.558594 600.1875 C 557.390625 600.808594 559.769531 601.871094 562.121094 602.828125 C 577.28125 609.003906 582.761719 621.359375 586.660156 641.246094 C 587.714844 646.605469 589.179688 652.027344 590.148438 658.378906 C 590.765625 655.386719 591.503906 653.09375 592.089844 650.476562 C 592.765625 647.433594 593.496094 644.574219 594.035156 641.839844 C 597.550781 623.875 600.386719 610.113281 616.398438 603.578125 C 620.632812 601.855469 626.609375 600.890625 631.769531 599.769531 Z M 631.769531 599.769531 " fill-opacity="1" fill-rule="nonzero"/></svg>